<?xml version="1.0" encoding="utf-8"?>
<!-- Generator: Adobe Illustrator 16.0.0, SVG Export Plug-In . SVG Version: 6.00 Build 0)  -->
<!DOCTYPE svg PUBLIC "-//W3C//DTD SVG 1.1//EN" "http://www.w3.org/Graphics/SVG/1.1/DTD/svg11.dtd">
<svg version="1.1" id="Layer_1" xmlns="http://www.w3.org/2000/svg" xmlns:xlink="http://www.w3.org/1999/xlink" x="0px" y="0px"
	 width="4088.236px" height="271.413px" viewBox="-2591.014 14.029 4088.236 271.413"
	 enable-background="new -2591.014 14.029 4088.236 271.413" xml:space="preserve">
<filter  width="200%" height="200%" x="0" y="0" id="f2">
	<feOffset  dx="20" result="offOut" in="SourceGraphic" dy="20"></feOffset>
	<feGaussianBlur  stdDeviation="10" result="blurOut" in="offOut"></feGaussianBlur>
	<feBlend  mode="normal" in2="blurOut" in="SourceGraphic"></feBlend>
</filter>
<g opacity="0.6" filter="url(#f2)">
	<path d="M-206.369,0H-901.71h-1689.304v159.43H-901.71c183.72-0.38,207.7,80.051,346.42,80.541l-0.01-0.061l1.27,0.061l1.24-0.061
		v0.061c138.712-0.479,162.692-80.921,346.422-80.541H1519.4V0H-206.369z"/>
</g>
<g>
	<path fill="#FFFFFF" d="M-195.87,14.029h-695.342h-1689.304V173.46h1689.304c183.72-0.38,207.7,80.051,346.42,80.541l-0.01-0.063
		l1.27,0.063l1.24-0.063V254c138.712-0.479,162.692-80.921,346.422-80.541h1725.77V14.029H-195.87z"/>
</g>
<g>
	<path fill="#43C3E9" d="M-715.674,61.282c1.335,2.602,2.637,4.467,3.902,5.592c1.267,1.124,2.883,1.687,4.853,1.687
		c2.04,0,3.833-0.472,5.381-1.423c1.546-0.951,3.059-2.444,4.536-4.485l8.862-12.131c1.196-1.619,1.794-3.094,1.794-4.432
		c0-1.195-0.441-2.127-1.318-2.793c-0.881-0.668-1.988-1.003-3.323-1.003c-1.619,0-2.92,0.299-3.904,0.896
		c-0.987,0.599-1.97,1.672-2.956,3.22l-8.229,12.975l-5.065-13.293c-0.491-1.405-1.195-2.389-2.11-2.953s-2.109-0.843-3.587-0.843
		c-1.477,0-2.707,0.404-3.693,1.213c-0.985,0.809-1.477,1.949-1.477,3.427c0,1.197,0.353,2.498,1.056,3.903L-715.674,61.282z"/>
	<path fill="#43C3E9" d="M-693.73,77.475c-4.291-1.513-9.004-2.269-14.137-2.269c-6.893,0-12.889,1.091-17.987,3.269
		c-5.099,2.181-9.004,5.243-11.708,9.179c-2.709,3.939-4.063,8.438-4.063,13.504c0,4.855,1.213,8.916,3.639,12.186
		c2.427,3.271,5.344,5.854,8.755,7.752c3.411,1.9,7.824,3.907,13.24,6.018c4.219,1.687,7.491,3.112,9.811,4.271
		c2.322,1.16,4.256,2.603,5.802,4.326c1.547,1.722,2.321,3.778,2.321,6.172c0,3.869-1.688,6.875-5.064,9.02
		c-3.377,2.145-8.054,3.217-14.031,3.217c-5.768,0-10.252-0.773-13.453-2.322c-3.2-1.545-4.799-3.904-4.799-7.067
		c0-0.775,0.052-1.511,0.159-2.215c0.105-0.703,0.158-1.195,0.158-1.477c0.21-1.055,0.315-2.285,0.315-3.691
		c0-1.55-0.598-2.814-1.792-3.802c-1.197-0.983-2.743-1.476-4.643-1.476c-2.602,0-4.572,1.02-5.907,3.06
		c-1.336,2.039-2.005,4.994-2.005,8.859c0,7.316,2.812,12.749,8.44,16.301c5.626,3.554,13.117,5.328,22.471,5.328
		c10.55,0,18.972-2.234,25.268-6.699c6.294-4.467,9.442-10.849,9.442-19.148c0-4.431-1.144-8.157-3.429-11.183
		c-2.285-3.022-5.046-5.415-8.281-7.173c-3.235-1.758-7.526-3.728-12.87-5.909c-4.431-1.757-7.878-3.271-10.339-4.536
		c-2.463-1.266-4.52-2.849-6.171-4.748c-1.654-1.898-2.48-4.185-2.48-6.858c0-4.007,1.599-7.12,4.8-9.334
		c3.201-2.217,7.824-3.325,13.874-3.325c4.289,0,7.876,0.775,10.761,2.322c2.883,1.548,4.325,3.796,4.325,6.752
		c0,0.564-0.105,1.897-0.316,4.007c-0.21,1.127-0.315,2.357-0.315,3.692c0,1.549,0.615,2.888,1.846,4.011
		c1.229,1.125,2.76,1.688,4.589,1.688c2.601,0,4.569-1.124,5.907-3.375c1.336-2.25,2.005-5.593,2.005-10.023
		c0-4.501-1.284-8.299-3.851-11.396C-686.013,81.291-689.441,78.988-693.73,77.475z"/>
	<path fill="#43C3E9" d="M-324.708,126.797c-1.476-3.375-3.691-6.102-6.646-8.178c-2.952-2.072-6.504-3.11-10.655-3.11
		c-4.291,0-8.16,1.179-11.603,3.533c-3.447,2.357-6.172,5.627-8.177,9.811c-0.73,1.527-1.28,3.152-1.742,4.83
		c-3.353,0.63-6.152,1.018-8.331,1.131c1.688-4.075,2.532-7.699,2.532-10.867c0-2.741-0.633-4.833-1.898-6.277
		c-1.267-1.439-2.919-2.161-4.959-2.161c-2.321,0-4.396,0.704-6.226,2.106c-1.83,1.409-3.271,3.238-4.326,5.487
		c-1.054,2.251-1.581,4.575-1.581,6.964c0,2.814,0.528,5.241,1.581,7.283c-2.108,3.726-5.273,8.718-9.494,14.981
		c-0.986-12.942-1.477-23.457-1.477-31.545c0-1.898-0.439-3.251-1.318-4.061c-0.88-0.81-2.234-1.213-4.06-1.213
		c-2.393,0-4.188,0.457-5.382,1.372c-1.196,0.913-1.829,2.53-1.9,4.851v3.694c0,2.502,0.066,5.196,0.163,7.981
		c-3.187,0.71-6.017,1.144-8.494,1.304c-0.563-5.417-2.479-9.97-5.749-13.665c-3.271-3.691-7.581-5.537-12.924-5.537
		c-4.361,0-8.336,1.179-11.922,3.533c-3.587,2.357-6.401,5.627-8.439,9.812c-2.042,4.187-3.06,8.951-3.06,14.295
		c0,1.409,0.136,2.77,0.334,4.105c-1.532,1.643-2.887,2.971-4.023,3.911c-2.042,1.688-4.151,2.533-6.33,2.533
		c-2.042,0-3.783-0.579-5.222-1.739c-1.443-1.162-2.305-2.69-2.584-4.59c4.781-2.534,8.157-5.417,10.126-8.652
		c1.969-3.231,2.954-6.787,2.954-10.656c0-3.515-1.071-6.468-3.217-8.86c-2.147-2.389-4.977-3.587-8.493-3.587
		c-3.797,0-7.877,1.989-12.238,5.962c-4.36,3.972-8.229,10.354-11.604,19.146c0-3.865,0.107-7.631,0.317-11.288
		c9.353-10.196,16.104-19.111,20.255-26.743c4.148-7.63,6.225-14.997,6.225-22.101c0-4.432-1.003-8.034-3.008-10.815
		c-2.004-2.778-4.624-4.167-7.857-4.167c-6.052,0-11.238,3.991-15.562,11.973c-4.327,7.983-7.597,17.846-9.812,29.592
		c-2.216,11.745-3.324,23.034-3.324,33.866c0,1.4,0.01,2.713,0.027,3.965c-2.492,2.805-4.62,4.899-6.355,6.212
		c-2.181,1.656-4.713,2.481-7.596,2.481c-1.831,0-3.307-0.614-4.432-1.846c-1.125-1.229-1.935-3.286-2.425-6.173
		c7.947-10.828,14.241-21.768,18.884-32.81c4.641-11.04,6.961-20.746,6.961-29.115c0-5.836-0.967-10.321-2.9-13.45
		c-1.936-3.129-4.589-4.695-7.965-4.695c-5.979,0-11.13,3.939-15.455,11.815c-4.326,7.879-7.597,17.304-9.812,28.273
		c-2.092,10.358-3.16,19.613-3.277,27.84c-2.918,0.626-5.549,1.027-7.853,1.176c-0.563-5.417-2.479-9.971-5.75-13.666
		c-3.27-3.691-7.58-5.537-12.924-5.537c-4.361,0-8.334,1.18-11.921,3.533c-3.587,2.357-6.4,5.627-8.438,9.811
		c-2.042,4.188-3.061,8.951-3.061,14.296c0,1.426,0.139,2.801,0.341,4.151c-1.444,1.585-2.713,2.872-3.768,3.813
		c-1.937,1.725-3.606,2.586-5.012,2.586c-2.04,0-3.058-1.406-3.058-4.22c0-1.97,0.666-6.015,2.004-12.13
		c1.546-7.174,2.32-12.134,2.32-14.877c0-4.57-2.286-6.857-6.857-6.857c-3.729,0-7.738,1.968-12.027,5.908
		c-4.29,3.939-8.193,10.232-11.708,18.884c0.21-1.266,0.598-3.165,1.16-5.697c1.335-5.908,2.004-9.988,2.004-12.238
		c0-2.319-0.51-4.043-1.53-5.169c-1.021-1.125-2.762-1.688-5.222-1.688c-2.463,0-5.083,0.934-7.86,2.795
		c-2.779,1.866-5.486,4.694-8.123,8.495c-2.64,3.795-4.906,8.438-6.805,13.924c0.28-3.095,0.632-5.68,1.054-7.753
		c0.423-2.075,0.983-4.519,1.689-7.334c1.056-3.939,1.581-6.471,1.581-7.594c0-0.987-0.281-1.653-0.844-2.006
		c-0.563-0.351-1.548-0.527-2.954-0.527c-2.602,0-4.625,0.475-6.065,1.424c-1.442,0.95-2.479,2.443-3.112,4.484
		c-2.603,8.228-3.902,16.914-3.902,26.058c0,6.189,0.544,10.692,1.636,13.503c1.09,2.812,2.97,4.219,5.644,4.219
		c2.179,0,3.779-0.579,4.8-1.739c1.019-1.16,1.916-3.393,2.69-6.697c0.913-3.803,2.127-7.665,3.64-11.607
		c1.511-3.937,3.075-7.176,4.694-9.705c1.616-2.533,2.955-3.799,4.008-3.799c0.772,0,1.16,0.563,1.16,1.688
		c0,1.41-0.281,4.362-0.845,8.863c-0.704,5.065-1.054,8.932-1.054,11.603c0,3.167,0.579,5.857,1.739,8.073
		c1.159,2.216,2.901,3.321,5.223,3.321c2.249,0,3.885-0.563,4.905-1.687c1.018-1.125,1.916-3.378,2.69-6.752
		c1.055-4.292,2.426-8.37,4.113-12.239c1.688-3.867,3.377-6.98,5.064-9.336c1.689-2.356,2.989-3.535,3.904-3.535
		c0.774,0,1.16,0.563,1.16,1.688c0,1.69-0.458,4.751-1.372,9.179c-0.985,5.065-1.477,8.583-1.477,10.552
		c0,3.938,0.913,6.946,2.744,9.02c1.828,2.073,4.537,3.11,8.124,3.11c4.43,0,8.387-1.193,11.868-3.587
		c1.95-1.336,3.821-2.912,5.627-4.668c1.376,2.04,3.07,3.79,5.133,5.196c2.989,2.041,6.594,3.059,10.813,3.059
		c4.993,0,9.459-1.774,13.399-5.326c3.937-3.552,6.576-8.282,7.912-14.189c3.288-0.136,6.378-0.57,9.31-1.239
		c0.705,4.734,1.978,8.844,3.826,12.318c2.988,5.625,7.577,8.438,13.767,8.438c4.499,0,8.526-1.195,12.078-3.587
		c1.696-1.14,3.327-2.443,4.901-3.89c0.389,2.196,0.968,3.9,1.744,5.104c1.019,1.58,2.618,2.372,4.799,2.372
		c2.18,0,3.781-0.579,4.801-1.739c1.019-1.162,1.917-3.395,2.691-6.699c1.124-4.571,2.671-9.02,4.641-13.345
		c1.969-4.324,4.097-7.86,6.383-10.604c2.285-2.741,4.378-4.114,6.277-4.114c0.772,0,1.425,0.318,1.952,0.949
		c0.527,0.634,0.79,1.583,0.79,2.848c0,2.18-0.668,4.026-2.002,5.539c-1.336,1.512-3.553,2.938-6.647,4.27
		c-2.814,1.198-4.22,3.168-4.22,5.91c0,5.134,1.65,9.251,4.958,12.343c3.305,3.098,7.667,4.643,13.082,4.643
		c4.431,0,8.262-1.16,11.499-3.482c1.842-1.321,3.671-2.922,5.491-4.747c1.372,2.032,3.058,3.771,5.11,5.169
		c2.989,2.041,6.593,3.059,10.815,3.059c4.992,0,9.457-1.774,13.397-5.326c3.939-3.552,6.576-8.279,7.914-14.189
		c3.512-0.148,6.806-0.62,9.911-1.373c0.155,2.216,0.329,4.498,0.531,6.856c0.422,4.854,1.459,8.407,3.111,10.656
		c1.652,2.254,3.92,3.376,6.805,3.376c2.602,0,4.92-0.735,6.963-2.216c2.037-1.476,4.464-4.216,7.279-8.229
		c2.46-3.514,4.71-6.925,6.752-10.232c2.742,0.845,5.659,1.265,8.754,1.265c1.629,0,3.211-0.119,4.757-0.33
		c0.248,2.969,0.935,5.792,2.101,8.455c1.476,3.376,3.674,6.104,6.594,8.178c2.918,2.073,6.451,3.11,10.601,3.11
		c4.222,0,8.071-1.177,11.552-3.532c3.482-2.356,6.244-5.625,8.281-9.813c2.041-4.183,3.061-8.949,3.061-14.294
		C-322.492,133.795-323.229,130.175-324.708,126.797z M-496.085,96.149c1.439-6.151,2.937-11.04,4.484-14.664
		c1.545-3.622,2.955-5.434,4.219-5.434c0.916,0,1.619,0.598,2.112,1.791c0.492,1.197,0.738,2.922,0.738,5.171
		c0,4.926-1.425,10.409-4.273,16.458c-2.85,6.048-6.453,11.641-10.813,16.775C-498.706,109.003-497.526,102.304-496.085,96.149z
		 M-571.514,151.376c-1.653,1.829-3.604,2.744-5.854,2.744c-2.041,0-3.816-1.02-5.328-3.06c-1.514-2.038-2.269-4.994-2.269-8.863
		c0-4.92,0.932-8.735,2.797-11.444c1.862-2.707,4.201-4.061,7.015-4.061h0.527c-0.21,1.125-0.316,2.251-0.316,3.375
		c0,2.674,0.579,5.208,1.741,7.596c1.16,2.393,2.829,4.323,5.011,5.801C-568.753,146.911-569.862,149.547-571.514,151.376z
		 M-532.849,106.538c1.547-8.65,3.34-15.893,5.38-21.731c2.039-5.835,3.867-8.756,5.486-8.756c1.967,0,2.955,2.674,2.955,8.019
		c0,6.821-1.479,14.365-4.433,22.627c-2.953,8.268-6.929,16.512-11.92,24.741C-535.241,123.489-534.397,115.191-532.849,106.538z
		 M-434.158,151.376c-1.653,1.829-3.605,2.744-5.855,2.744c-2.042,0-3.817-1.02-5.327-3.06c-1.513-2.038-2.268-4.994-2.268-8.863
		c0-4.92,0.931-8.735,2.795-11.444c1.865-2.707,4.203-4.061,7.015-4.061h0.529c-0.21,1.125-0.315,2.251-0.315,3.375
		c0,2.674,0.579,5.208,1.74,7.596c1.159,2.393,2.829,4.323,5.01,5.801C-431.4,146.911-432.506,149.547-434.158,151.376z
		 M-338.157,150.005c-1.654,2.601-3.676,3.902-6.067,3.902c-2.111,0-3.87-0.947-5.276-2.847c-1.407-1.9-2.108-4.852-2.108-8.863
		c0-5.063,0.826-8.878,2.479-11.444c1.652-2.567,3.743-3.85,6.276-3.85c1.968,0,3.656,0.985,5.065,2.951
		c1.406,1.972,2.109,4.889,2.109,8.757C-335.679,143.607-336.505,147.405-338.157,150.005z"/>
</g>
</svg>
