<?xml version="1.0" encoding="utf-8"?>
<!-- Generator: Adobe Illustrator 16.0.0, SVG Export Plug-In . SVG Version: 6.00 Build 0)  -->
<!DOCTYPE svg PUBLIC "-//W3C//DTD SVG 1.1//EN" "http://www.w3.org/Graphics/SVG/1.1/DTD/svg11.dtd">
<svg version="1.1" id="Layer_1" xmlns="http://www.w3.org/2000/svg" xmlns:xlink="http://www.w3.org/1999/xlink" x="0px" y="0px"
	 width="3221.355px" height="1652.64px" viewBox="1010.659 0 3221.355 1652.64"
	 enable-background="new 1010.659 0 3221.355 1652.64" xml:space="preserve">
<radialGradient id="SVGID_1_" cx="2758.5361" cy="826.3198" r="1545.8671" gradientTransform="matrix(1 0 0 0.8463 0 127.0281)" gradientUnits="userSpaceOnUse">
	<stop  offset="0" style="stop-color:#68DCFD"/>
	<stop  offset="0.1764" style="stop-color:#5FD0F7"/>
	<stop  offset="0.499" style="stop-color:#46AFE8"/>
	<stop  offset="0.9287" style="stop-color:#1E7ACF"/>
	<stop  offset="1" style="stop-color:#1770CB"/>
</radialGradient>
<path fill="url(#SVGID_1_)" stroke="#FFFFFF" stroke-miterlimit="10" d="M4778.221-10.51v1673.66H738.851V-10.51h2056.74
	c-50.721,66.88-154.341,229.67-129.15,416.57c31.81,236.09,146.69,221.84,171.86,343.61c24.479,118.47-111.091,248.77,24.31,474.4
	c155.5,259.2,446.89,254.7,578.521,240.67c189.229-20.2,540.89-261.37,895.76-215.13C4235.2,906.45,4418,521.08,4408.08,331.01
	c-4.199-80.75-21.319-219.82-97.96-341.52H4778.221z"/>
<path fill="#FFFFFF" stroke="#FFFFFF" stroke-miterlimit="10" d="M2795.591-10.51c15.34-20.24,25.85-31.69,26.47-32.36l-0.311,0.2
	c2.78-3.45,182.421-226.88,418.771-224.45c238.24,2.45,242.21,109.89,366.43,115.56c120.84,5.51,228.15-148.89,472.28-50.79
	c109.14,43.86,182.09,114.33,230.89,191.84H2795.591z"/>
</svg>
