<?xml version="1.0" encoding="utf-8"?>
<!-- Generator: Adobe Illustrator 16.0.0, SVG Export Plug-In . SVG Version: 6.00 Build 0)  -->
<!DOCTYPE svg PUBLIC "-//W3C//DTD SVG 1.1//EN" "http://www.w3.org/Graphics/SVG/1.1/DTD/svg11.dtd">
<svg version="1.1" id="Layer_1" xmlns="http://www.w3.org/2000/svg" xmlns:xlink="http://www.w3.org/1999/xlink" x="0px" y="0px"
	 width="320.333px" height="187.333px" viewBox="-166.833 -139.833 407.333 187.333"
	 enable-background="new -166.833 -139.833 407.333 187.333" xml:space="preserve">
<circle fill="#4FBAED" cx="-7.667" cy="15" r="15">
<animate  fill="remove" restart="always" additive="replace" accumulate="none" repeatCount="indefinite" calcMode="linear" values="15;9;15" dur="0.8s" begin="0s" to="15" from="15" attributeName="r">
	</animate>
<animate  fill="remove" restart="always" additive="replace" accumulate="none" repeatCount="indefinite" calcMode="linear" values="1;.5;1" dur="0.8s" begin="0s" to="1" from="1" attributeName="fill-opacity">
	</animate>
</circle>
<circle fill="#4FBAED" fill-opacity="0.3" cx="37.333" cy="15" r="9">
<animate  fill="remove" restart="always" additive="replace" accumulate="none" repeatCount="indefinite" calcMode="linear" values="9;15;9" dur="0.8s" begin="0s" to="9" from="9" attributeName="r">
	</animate>
<animate  fill="remove" restart="always" additive="replace" accumulate="none" repeatCount="indefinite" calcMode="linear" values=".5;1;.5" dur="0.8s" begin="0s" to="0.5" from="0.5" attributeName="fill-opacity">
	</animate>
</circle>
<circle fill="#4FBAED" cx="82.333" cy="15" r="15">
<animate  fill="remove" restart="always" additive="replace" accumulate="none" repeatCount="indefinite" calcMode="linear" values="15;9;15" dur="0.8s" begin="0s" to="15" from="15" attributeName="r">
	</animate>
<animate  fill="remove" restart="always" additive="replace" accumulate="none" repeatCount="indefinite" calcMode="linear" values="1;.5;1" dur="0.8s" begin="0s" to="1" from="1" attributeName="fill-opacity">
	</animate>
</circle>
<g>
	<path fill="#4FBAED" d="M-124.758-35.499c-1.516-0.191-2.557-0.589-3.126-1.193c-0.568-0.607-0.814-1.593-0.738-2.958
		c0.263-3.75,0.888-8.384,1.875-13.898c0.985-5.512,2.177-10.826,3.582-15.942c0.265-0.947,0.795-1.613,1.591-1.989
		c0.795-0.379,1.838-0.568,3.126-0.568c2.313,0,3.468,0.643,3.468,1.931c0,0.532-0.114,1.135-0.342,1.82
		c-0.985,3.031-1.971,7.096-2.956,12.19c-0.985,5.098-1.686,9.958-2.103,14.581c1.137,0.114,2.423,0.169,3.866,0.169
		c6.632,0,11.586-2.007,14.865-6.024c3.278-4.017,4.917-9.38,4.917-16.087c0-4.508-1.289-7.995-3.865-10.458
		c-2.577-2.464-6.217-3.698-10.914-3.698c-3.031,0-6.034,0.474-9.01,1.423c-2.974,0.945-5.656,2.197-8.042,3.751
		c-0.493,0.341-1.023,0.512-1.592,0.512c-0.644,0-1.156-0.274-1.534-0.825c-0.379-0.549-0.569-1.224-0.569-2.02
		c0-0.91,0.15-1.656,0.455-2.245c0.303-0.584,0.815-1.127,1.535-1.621c2.614-1.781,5.685-3.136,9.208-4.064
		c3.524-0.93,6.914-1.393,10.175-1.393c4.624,0,8.621,0.807,11.994,2.417c3.372,1.613,5.968,3.972,7.787,7.078
		c1.819,3.104,2.729,6.858,2.729,11.253c0,5.724-1.137,10.713-3.41,14.979c-2.274,4.264-5.59,7.568-9.948,9.919
		c-4.357,2.352-9.549,3.523-15.575,3.523C-119.509-34.932-121.991-35.121-124.758-35.499z"/>
	<path fill="#4FBAED" d="M-58.052-47.208c0.285,0.453,0.426,1.079,0.426,1.875c0,1.517-0.36,2.692-1.08,3.525
		c-1.402,1.706-3.381,3.28-5.939,4.718c-2.559,1.439-5.296,2.159-8.214,2.159c-3.979,0-7.067-1.079-9.266-3.239
		c-2.197-2.161-3.297-5.117-3.297-8.868c0-2.615,0.55-5.048,1.648-7.304c1.1-2.253,2.625-4.044,4.576-5.371
		c1.952-1.329,4.16-1.991,6.623-1.991c2.198,0,3.959,0.652,5.286,1.96c1.327,1.309,1.99,3.081,1.99,5.313
		c0,2.615-0.938,4.863-2.814,6.738c-1.875,1.876-5.049,3.365-9.521,4.462c0.947,1.743,2.747,2.615,5.4,2.615
		c1.705,0,3.647-0.597,5.826-1.792c2.179-1.194,4.064-2.757,5.656-4.686c0.455-0.534,0.967-0.796,1.535-0.796
		C-58.725-47.89-58.336-47.665-58.052-47.208z M-77.095-53.689c-0.966,1.63-1.45,3.602-1.45,5.912v0.112
		c2.236-0.53,3.999-1.326,5.287-2.387c1.286-1.061,1.933-2.292,1.933-3.698c0-0.719-0.199-1.297-0.597-1.73
		c-0.398-0.438-0.938-0.654-1.621-0.654C-74.944-56.134-76.128-55.316-77.095-53.689z"/>
	<path fill="#4FBAED" d="M-35.713-47.208c0.284,0.453,0.426,1.079,0.426,1.875c0,1.517-0.36,2.692-1.08,3.525
		c-1.629,2.011-3.41,3.656-5.343,4.945c-1.933,1.288-4.149,1.932-6.65,1.932c-7.73,0-11.596-5.437-11.596-16.314
		c0-1.667,0.057-3.354,0.171-5.061h-2.217c-1.136,0-1.904-0.21-2.302-0.626c-0.397-0.417-0.597-1.08-0.597-1.989
		c0-2.122,0.853-3.183,2.558-3.183h3.24c0.642-4.171,1.63-7.978,2.956-11.426c1.326-3.448,2.927-6.195,4.803-8.243
		c1.876-2.043,3.894-3.068,6.054-3.068c1.592,0,2.843,0.703,3.751,2.103c0.91,1.405,1.365,3.167,1.365,5.286
		c0,5.875-2.463,10.993-7.39,15.349h6.367c0.604,0,1.039,0.132,1.307,0.398c0.265,0.262,0.398,0.757,0.398,1.477
		c0,2.615-2.141,3.919-6.423,3.919h-6.935c-0.076,1.897-0.113,3.375-0.113,4.435c0,3.941,0.464,6.708,1.392,8.299
		s2.397,2.39,4.405,2.39c1.63,0,3.069-0.494,4.32-1.479s2.729-2.462,4.434-4.433c0.455-0.533,0.967-0.795,1.535-0.795
		C-36.385-47.89-35.997-47.665-35.713-47.208z M-48.729-77.251c-0.702,1.42-1.365,3.394-1.99,5.912
		c-0.625,2.52-1.146,5.315-1.563,8.384c2.236-1.932,3.913-4.099,5.031-6.509c1.118-2.407,1.676-4.592,1.676-6.564
		c0-2.234-0.417-3.355-1.251-3.355C-47.394-79.383-48.029-78.672-48.729-77.251z"/>
	<path fill="#4FBAED" d="M-33.837-35.045c-1.042-0.91-1.563-1.932-1.563-3.069c0-0.985,0.36-1.838,1.08-2.558
		s1.781-1.081,3.183-1.081c0.493,0,1.071,0.048,1.734,0.142c0.663,0.096,1.166,0.162,1.506,0.201
		c-0.038-0.987-0.256-1.916-0.654-2.787c-0.397-0.871-0.899-1.714-1.506-2.529c-0.606-0.815-1.174-1.525-1.706-2.129
		c-1.174,2.236-2.34,4.092-3.496,5.569c-1.156,1.479-2.416,2.884-3.78,4.207c-0.683,0.683-1.402,1.023-2.16,1.023
		c-0.607,0-1.1-0.217-1.478-0.65c-0.379-0.438-0.569-0.976-0.569-1.622c0-0.756,0.265-1.458,0.796-2.104l0.738-0.91
		c2.084-2.578,3.657-4.7,4.718-6.367c0.645-1.1,1.402-2.567,2.274-4.406c0.871-1.834,1.724-3.739,2.558-5.709
		c0.72-1.667,2.217-2.504,4.491-2.504c1.061,0,1.8,0.094,2.217,0.285c0.417,0.188,0.625,0.492,0.625,0.91
		c0,0.229-0.075,0.589-0.227,1.08c-0.151,0.494-0.36,0.987-0.625,1.477c-0.682,1.365-1.023,2.52-1.023,3.468
		c0,0.569,0.199,1.194,0.597,1.877c0.397,0.682,1.014,1.534,1.847,2.557c1.213,1.591,2.132,2.946,2.757,4.067
		c0.625,1.117,0.938,2.338,0.938,3.667c0,0.378-0.038,0.908-0.114,1.591c1.857-0.722,4.036-2.634,6.537-5.742
		c0.455-0.532,0.966-0.796,1.535-0.796c0.493,0,0.881,0.229,1.165,0.68c0.285,0.455,0.426,1.081,0.426,1.876
		c0,1.44-0.36,2.615-1.08,3.523c-1.895,2.35-3.704,3.951-5.429,4.803c-1.726,0.851-3.855,1.317-6.395,1.394
		c-1.516,1.288-3.316,1.931-5.4,1.931C-31.291-33.679-32.795-34.136-33.837-35.045z"/>
	<path fill="#4FBAED" d="M18.399-47.208c0.284,0.453,0.426,1.079,0.426,1.875c0,1.517-0.36,2.692-1.08,3.525
		c-1.705,2.084-3.43,3.75-5.173,5.002c-1.743,1.249-3.809,1.875-6.195,1.875c-2.918,0-5.268-0.833-7.048-2.501
		c-1.782-1.667-2.672-3.886-2.672-6.652c0-1.479,0.758-2.538,2.273-3.184c1.668-0.72,2.861-1.488,3.582-2.302
		c0.72-0.817,1.08-1.812,1.08-2.987c0-0.682-0.142-1.193-0.426-1.531c-0.284-0.344-0.635-0.512-1.052-0.512
		c-1.023,0-2.15,0.738-3.382,2.217c-1.231,1.477-2.378,3.381-3.438,5.711c-1.061,2.331-1.895,4.728-2.501,7.191
		c-0.417,1.78-0.901,2.984-1.45,3.607c-0.55,0.627-1.412,0.938-2.586,0.938c-1.175,0-2.037-0.427-2.586-1.278
		c-0.55-0.854-0.919-2.171-1.109-3.951c-0.189-1.782-0.284-4.396-0.284-7.847c0-5.833,0.597-11.917,1.791-18.245
		c1.193-6.329,2.955-11.644,5.286-15.946c2.331-4.297,5.125-6.452,8.384-6.452c1.743,0,3.155,0.747,4.235,2.244
		c1.08,1.5,1.62,3.44,1.62,5.827c0,3.827-1.118,7.796-3.354,11.909c-2.236,4.111-5.874,8.917-10.914,14.41
		c-0.114,1.971-0.17,3.997-0.17,6.082c1.819-4.737,3.901-8.175,6.252-10.316c2.35-2.14,4.548-3.21,6.594-3.21
		c1.895,0,3.42,0.642,4.576,1.931s1.734,2.88,1.734,4.777c0,2.085-0.531,3.999-1.592,5.743c-1.061,1.742-2.88,3.296-5.457,4.66
		c0.152,1.024,0.616,1.847,1.393,2.473c0.776,0.626,1.715,0.938,2.813,0.938c1.175,0,2.312-0.455,3.411-1.363
		c1.099-0.913,2.539-2.427,4.32-4.549c0.455-0.534,0.967-0.796,1.535-0.796C17.727-47.89,18.116-47.665,18.399-47.208z
		 M-3.229-80.093c-0.834,1.952-1.639,4.587-2.417,7.901c-0.776,3.315-1.412,6.926-1.903,10.828c2.349-2.767,4.291-5.776,5.826-9.038
		c1.534-3.257,2.302-6.212,2.302-8.865c0-1.215-0.135-2.142-0.399-2.788c-0.265-0.641-0.644-0.965-1.136-0.965
		C-1.638-83.018-2.396-82.042-3.229-80.093z"/>
	<path fill="#4FBAED" d="M15.586-37.49c-1.402-1.704-2.103-3.939-2.103-6.708c0-3.031,0.701-5.901,2.103-8.612
		c1.402-2.709,3.268-4.888,5.599-6.538c2.331-1.646,4.804-2.473,7.418-2.473c0.834,0,1.393,0.16,1.677,0.482
		c0.285,0.326,0.521,0.902,0.711,1.735c0.795-0.149,1.63-0.228,2.501-0.228c1.857,0,2.786,0.66,2.786,1.989
		c0,0.795-0.285,2.69-0.853,5.682c-0.872,4.361-1.308,7.391-1.308,9.098c0,0.566,0.142,1.022,0.426,1.362
		c0.284,0.344,0.654,0.515,1.108,0.515c0.72,0,1.591-0.466,2.614-1.396c1.024-0.928,2.407-2.432,4.151-4.517
		c0.454-0.533,0.964-0.795,1.533-0.795c0.492,0,0.882,0.227,1.165,0.678c0.285,0.457,0.427,1.081,0.427,1.876
		c0,1.519-0.361,2.694-1.078,3.523c-1.554,1.934-3.206,3.562-4.945,4.89c-1.745,1.326-3.432,1.989-5.062,1.989
		c-1.25,0-2.396-0.427-3.438-1.278c-1.042-0.854-1.829-2.02-2.359-3.499c-1.971,3.186-4.453,4.777-7.446,4.777
		C18.863-34.932,16.988-35.784,15.586-37.49z M25.647-42.151c0.758-0.984,1.307-2.292,1.648-3.921l2.104-10.459
		c-1.592,0.04-3.06,0.637-4.405,1.79c-1.346,1.155-2.417,2.682-3.212,4.578c-0.796,1.895-1.194,3.901-1.194,6.026
		c0,1.175,0.237,2.043,0.71,2.615c0.474,0.567,1.128,0.851,1.961,0.851C24.093-40.671,24.89-41.164,25.647-42.151z M27.722-66.051
		c-0.398-0.399-0.597-0.881-0.597-1.45c0-0.265,0.094-0.626,0.284-1.079l5.287-11.824c0.34-0.755,0.786-1.316,1.336-1.676
		c0.546-0.358,1.165-0.54,1.847-0.54c0.947,0,1.791,0.341,2.53,1.022c0.742,0.682,1.11,1.536,1.11,2.558
		c0,1.063-0.418,2.124-1.251,3.184l-7.333,9.436c-0.493,0.645-1.099,0.967-1.819,0.967C28.584-65.453,28.12-65.654,27.722-66.051z"
		/>
	<path fill="#4FBAED" d="M62.058-35.045c-1.045-0.91-1.563-1.932-1.563-3.069c0-0.985,0.354-1.838,1.078-2.558
		c0.723-0.72,1.78-1.081,3.184-1.081c0.494,0,1.072,0.048,1.733,0.142c0.66,0.096,1.166,0.162,1.508,0.201
		c-0.037-0.987-0.253-1.916-0.65-2.787s-0.903-1.714-1.51-2.529c-0.605-0.815-1.173-1.525-1.707-2.129
		c-1.175,2.236-2.341,4.092-3.497,5.569c-1.155,1.479-2.417,2.884-3.779,4.207c-0.682,0.683-1.405,1.023-2.16,1.023
		c-0.607,0-1.098-0.217-1.477-0.65c-0.379-0.438-0.569-0.976-0.569-1.622c0-0.756,0.267-1.458,0.797-2.104l0.74-0.91
		c2.082-2.578,3.654-4.7,4.718-6.367c0.642-1.1,1.402-2.567,2.271-4.406c0.875-1.834,1.726-3.739,2.559-5.709
		c0.722-1.667,2.217-2.504,4.49-2.504c1.058,0,1.801,0.094,2.217,0.285c0.417,0.188,0.625,0.492,0.625,0.91
		c0,0.229-0.072,0.589-0.227,1.08c-0.151,0.494-0.361,0.987-0.626,1.477c-0.679,1.365-1.024,2.52-1.024,3.468
		c0,0.569,0.201,1.194,0.599,1.877c0.397,0.682,1.013,1.534,1.844,2.557c1.212,1.591,2.132,2.946,2.758,4.067
		c0.626,1.117,0.938,2.338,0.938,3.667c0,0.378-0.037,0.908-0.116,1.591c1.859-0.722,4.039-2.634,6.543-5.742
		c0.451-0.532,0.961-0.796,1.529-0.796c0.495,0,0.884,0.229,1.166,0.68c0.287,0.455,0.426,1.081,0.426,1.876
		c0,1.44-0.361,2.615-1.078,3.523c-1.896,2.35-3.704,3.951-5.431,4.803c-1.723,0.851-3.854,1.317-6.392,1.394
		c-1.519,1.288-3.316,1.931-5.398,1.931C64.605-33.679,63.097-34.136,62.058-35.045z M65.382-66.421
		c-0.646-0.683-1.136-1.764-1.479-3.241l-2.505-10.233c-0.11-0.45-0.169-0.868-0.169-1.247c0-0.947,0.314-1.676,0.938-2.191
		c0.626-0.512,1.375-0.765,2.248-0.765c0.869,0,1.572,0.219,2.1,0.651c0.534,0.439,0.876,1.243,1.029,2.419l1.306,10.062
		l4.943-10.062c0.57-1.175,1.175-1.97,1.819-2.388c0.648-0.418,1.365-0.626,2.16-0.626c0.796,0,1.432,0.179,1.908,0.542
		c0.472,0.359,0.712,0.88,0.712,1.562c0,0.643-0.208,1.326-0.629,2.043l-6.368,10.973c-0.679,1.175-1.446,2.054-2.299,2.643
		c-0.856,0.586-1.869,0.88-3.043,0.88C66.912-65.399,66.023-65.74,65.382-66.421z"/>
	<path fill="#4FBAED" d="M114.29-47.208c0.284,0.453,0.428,1.079,0.428,1.875c0,1.517-0.359,2.692-1.078,3.525
		c-1.707,2.084-3.433,3.75-5.178,5.002c-1.738,1.249-3.806,1.875-6.192,1.875c-2.918,0-5.271-0.833-7.05-2.501
		c-1.783-1.667-2.671-3.886-2.671-6.652c0-1.479,0.759-2.538,2.271-3.184c1.67-0.72,2.863-1.488,3.582-2.302
		c0.722-0.817,1.082-1.812,1.082-2.987c0-0.682-0.145-1.193-0.427-1.531c-0.285-0.344-0.641-0.512-1.054-0.512
		c-1.023,0-2.15,0.738-3.383,2.217c-1.23,1.477-2.378,3.381-3.436,5.711c-1.064,2.331-1.898,4.728-2.504,7.191
		c-0.417,1.78-0.897,2.984-1.446,3.607c-0.551,0.627-1.413,0.938-2.588,0.938s-2.038-0.427-2.586-1.278
		c-0.55-0.854-0.92-2.171-1.111-3.951c-0.188-1.782-0.281-4.396-0.281-7.847c0-5.833,0.596-11.917,1.791-18.245
		c1.193-6.329,2.955-11.644,5.281-15.946c2.331-4.297,5.125-6.452,8.387-6.452c1.743,0,3.154,0.747,4.232,2.244
		c1.082,1.5,1.625,3.44,1.625,5.827c0,3.827-1.121,7.796-3.355,11.909c-2.237,4.111-5.871,8.917-10.915,14.41
		c-0.111,1.971-0.172,3.997-0.172,6.082c1.826-4.737,3.904-8.175,6.256-10.316c2.351-2.14,4.548-3.21,6.597-3.21
		c1.893,0,3.419,0.642,4.575,1.931c1.159,1.289,1.73,2.88,1.73,4.777c0,2.085-0.527,3.999-1.592,5.743
		c-1.06,1.742-2.877,3.296-5.455,4.66c0.149,1.024,0.616,1.847,1.394,2.473c0.775,0.626,1.712,0.938,2.813,0.938
		c1.175,0,2.314-0.455,3.408-1.363c1.101-0.913,2.539-2.427,4.32-4.549c0.456-0.534,0.967-0.796,1.536-0.796
		C113.616-47.89,114.01-47.665,114.29-47.208z M92.659-80.093c-0.832,1.952-1.636,4.587-2.414,7.901
		c-0.777,3.315-1.413,6.926-1.907,10.828c2.35-2.767,4.294-5.776,5.83-9.038c1.532-3.257,2.304-6.212,2.304-8.865
		c0-1.215-0.136-2.142-0.398-2.788c-0.268-0.641-0.647-0.965-1.138-0.965C94.251-83.018,93.494-82.042,92.659-80.093z"/>
	<path fill="#4FBAED" d="M140.242-51.927c0.264,0.492,0.397,1.118,0.397,1.875c0,1.819-0.549,2.898-1.65,3.238
		c-2.271,0.799-4.773,1.25-7.503,1.365c-0.719,3.184-2.141,5.734-4.261,7.646c-2.123,1.915-4.528,2.871-7.221,2.871
		c-2.272,0-4.214-0.546-5.825-1.648c-1.615-1.099-2.834-2.558-3.667-4.377c-0.836-1.819-1.249-3.789-1.249-5.91
		c0-2.88,0.544-5.448,1.646-7.702c1.102-2.254,2.614-4.019,4.546-5.286c1.934-1.268,4.077-1.906,6.427-1.906
		c2.878,0,5.198,0.996,6.961,2.985c1.761,1.989,2.794,4.442,3.099,7.361c1.783-0.114,3.9-0.494,6.369-1.138
		c0.299-0.074,0.567-0.114,0.795-0.114C139.598-52.667,139.975-52.42,140.242-51.927z M126.541-66.051
		c-0.531-0.438-0.869-1.24-1.022-2.418l-1.311-10.06l-4.946,10.06c-0.563,1.175-1.174,1.971-1.818,2.387
		c-0.641,0.419-1.364,0.629-2.16,0.629s-1.431-0.181-1.901-0.543c-0.477-0.357-0.714-0.882-0.714-1.563
		c0-0.642,0.21-1.326,0.626-2.044l6.367-10.973c0.683-1.172,1.451-2.054,2.306-2.64c0.851-0.587,1.868-0.882,3.042-0.882
		c1.135,0,2.024,0.342,2.669,1.024s1.138,1.761,1.48,3.24l2.498,10.231c0.117,0.453,0.173,0.873,0.173,1.249
		c0,0.947-0.312,1.677-0.939,2.189c-0.624,0.512-1.374,0.766-2.243,0.766C127.773-65.399,127.073-65.617,126.541-66.051z
		 M123.613-42.435c0.895-0.985,1.489-2.406,1.795-4.264c-1.174-0.796-2.076-1.836-2.702-3.125s-0.938-2.652-0.938-4.096
		c0-0.604,0.055-1.212,0.17-1.819h-0.28c-1.52,0-2.782,0.732-3.786,2.189c-1.004,1.459-1.503,3.514-1.503,6.168
		c0,2.083,0.407,3.674,1.221,4.774c0.814,1.101,1.773,1.648,2.868,1.648C121.673-40.958,122.725-41.449,123.613-42.435z"/>
	<path fill="#4FBAED" d="M158.462-47.208c0.28,0.453,0.425,1.079,0.425,1.875c0,1.517-0.36,2.692-1.082,3.525
		c-1.628,2.011-3.401,3.656-5.313,4.945c-1.912,1.288-4.083,1.932-6.511,1.932c-3.333,0-5.804-1.516-7.415-4.547
		c-1.611-3.032-2.416-6.956-2.416-11.767c0-4.623,0.599-9.893,1.792-15.805c1.193-5.909,2.954-10.988,5.281-15.233
		c2.33-4.245,5.105-6.367,8.331-6.367c1.819,0,3.247,0.842,4.29,2.527c1.045,1.685,1.563,4.103,1.563,7.25
		c0,4.509-1.249,9.739-3.752,15.688c-2.5,5.951-5.892,11.842-10.173,17.679c0.263,1.554,0.699,2.662,1.305,3.323
		c0.607,0.663,1.403,0.998,2.388,0.998c1.554,0,2.919-0.446,4.095-1.337c1.179-0.89,2.674-2.417,4.49-4.575
		c0.453-0.533,0.967-0.795,1.536-0.795C157.783-47.89,158.175-47.665,158.462-47.208z M147.344-78.302
		c-1.098,3.147-2.063,7.051-2.897,11.709c-0.837,4.662-1.29,9.133-1.364,13.415c2.689-4.433,4.829-8.877,6.421-13.33
		c1.591-4.453,2.387-8.517,2.387-12.192c0-2.88-0.527-4.317-1.591-4.317C149.431-83.018,148.445-81.446,147.344-78.302z"/>
	<path fill="#4FBAED" d="M188.302-47.208c0.28,0.453,0.426,1.079,0.426,1.875c0,1.517-0.361,2.692-1.078,3.525
		c-1.707,2.084-3.431,3.75-5.177,5.002c-1.739,1.249-3.807,1.875-6.193,1.875c-2.919,0-5.27-0.833-7.052-2.501
		c-1.781-1.667-2.669-3.886-2.669-6.652c0-1.479,0.757-2.538,2.271-3.184c1.67-0.72,2.863-1.488,3.58-2.302
		c0.724-0.817,1.082-1.812,1.082-2.987c0-0.682-0.143-1.193-0.425-1.531c-0.287-0.344-0.639-0.512-1.055-0.512
		c-1.022,0-2.149,0.738-3.382,2.217c-1.232,1.477-2.378,3.381-3.438,5.711c-1.063,2.331-1.896,4.728-2.502,7.191
		c-0.418,1.78-0.899,2.984-1.448,3.607c-0.549,0.627-1.411,0.938-2.586,0.938s-2.04-0.427-2.586-1.278
		c-0.549-0.854-0.922-2.171-1.11-3.951c-0.19-1.782-0.283-4.396-0.283-7.847c0-5.833,0.598-11.917,1.792-18.245
		c1.193-6.329,2.954-11.644,5.281-15.946c2.329-4.297,5.125-6.452,8.387-6.452c1.742,0,3.154,0.747,4.232,2.244
		c1.082,1.5,1.624,3.44,1.624,5.827c0,3.827-1.12,7.796-3.353,11.909c-2.239,4.111-5.875,8.917-10.917,14.41
		c-0.111,1.971-0.17,3.997-0.17,6.082c1.822-4.737,3.902-8.175,6.254-10.316c2.351-2.14,4.549-3.21,6.597-3.21
		c1.893,0,3.417,0.642,4.577,1.931c1.156,1.289,1.727,2.88,1.727,4.777c0,2.085-0.527,3.999-1.591,5.743
		c-1.059,1.742-2.878,3.296-5.454,4.66c0.149,1.024,0.615,1.847,1.393,2.473c0.776,0.626,1.713,0.938,2.813,0.938
		c1.175,0,2.314-0.455,3.409-1.363c1.102-0.913,2.538-2.427,4.319-4.549c0.458-0.534,0.967-0.796,1.534-0.796
		C187.626-47.89,188.02-47.665,188.302-47.208z M166.671-80.093c-0.836,1.952-1.638,4.587-2.418,7.901
		c-0.775,3.315-1.411,6.926-1.905,10.828c2.35-2.767,4.294-5.776,5.828-9.038c1.536-3.257,2.304-6.212,2.304-8.865
		c0-1.215-0.134-2.142-0.397-2.788c-0.267-0.641-0.645-0.965-1.135-0.965C168.263-83.018,167.504-82.042,166.671-80.093z"/>
	<path fill="#4FBAED" d="M185.486-37.49c-1.403-1.704-2.102-3.939-2.102-6.708c0-3.031,0.698-5.901,2.102-8.612
		c1.4-2.709,3.269-4.888,5.601-6.538c2.331-1.646,4.802-2.473,7.415-2.473c0.839,0,1.393,0.16,1.679,0.482
		c0.282,0.326,0.519,0.902,0.713,1.735c0.796-0.149,1.631-0.228,2.499-0.228c1.855,0,2.787,0.66,2.787,1.989
		c0,0.795-0.284,2.69-0.852,5.682c-0.874,4.361-1.311,7.391-1.311,9.098c0,0.566,0.145,1.022,0.432,1.362
		c0.282,0.344,0.65,0.515,1.107,0.515c0.722,0,1.591-0.466,2.613-1.396c1.028-0.928,2.412-2.432,4.149-4.517
		c0.456-0.533,0.967-0.795,1.536-0.795c0.493,0,0.882,0.227,1.164,0.678c0.287,0.457,0.427,1.081,0.427,1.876
		c0,1.519-0.36,2.694-1.077,3.523c-1.555,1.934-3.208,3.562-4.945,4.89c-1.744,1.326-3.433,1.989-5.063,1.989
		c-1.247,0-2.396-0.427-3.438-1.278c-1.043-0.854-1.83-2.02-2.358-3.499c-1.971,3.186-4.453,4.777-7.448,4.777
		C188.765-34.932,186.887-35.784,185.486-37.49z M195.546-42.151c0.759-0.984,1.311-2.292,1.651-3.921l2.102-10.459
		c-1.593,0.04-3.059,0.637-4.403,1.79c-1.345,1.155-2.417,2.682-3.211,4.578c-0.796,1.895-1.193,3.901-1.193,6.026
		c0,1.175,0.237,2.043,0.709,2.615c0.476,0.567,1.129,0.851,1.962,0.851C193.991-40.671,194.787-41.164,195.546-42.151z"/>
</g>
</svg>
