<?xml version="1.0" encoding="utf-8"?>
<!-- Generator: Adobe Illustrator 16.0.0, SVG Export Plug-In . SVG Version: 6.00 Build 0)  -->
<!DOCTYPE svg PUBLIC "-//W3C//DTD SVG 1.1//EN" "http://www.w3.org/Graphics/SVG/1.1/DTD/svg11.dtd">
<svg version="1.1" id="Layer_1" xmlns="http://www.w3.org/2000/svg" xmlns:xlink="http://www.w3.org/1999/xlink" x="0px" y="0px"
	 width="578.5px" height="119.665px" viewBox="0 0 578.5 119.665" enable-background="new 0 0 578.5 119.665" xml:space="preserve">
<g>
	<path fill="#43C3E9" d="M22.818,100.917c-2.407-0.301-4.062-0.933-4.964-1.896c-0.903-0.962-1.295-2.527-1.174-4.694
		c0.42-5.957,1.413-13.313,2.979-22.07c1.564-8.755,3.46-17.195,5.688-25.319c0.42-1.503,1.264-2.557,2.527-3.159
		c1.264-0.601,2.918-0.903,4.964-0.903c3.67,0,5.507,1.024,5.507,3.069c0,0.843-0.181,1.805-0.542,2.888
		c-1.565,4.815-3.13,11.269-4.693,19.363c-1.565,8.094-2.679,15.812-3.34,23.152c1.805,0.181,3.851,0.271,6.138,0.271
		c10.53,0,18.398-3.188,23.604-9.567c5.204-6.379,7.808-14.895,7.808-25.545c0-7.161-2.046-12.697-6.138-16.609
		c-4.093-3.911-9.87-5.867-17.331-5.867c-4.815,0-9.584,0.753-14.307,2.256c-4.726,1.505-8.981,3.491-12.772,5.958
		c-0.783,0.542-1.625,0.813-2.528,0.813c-1.023,0-1.836-0.436-2.437-1.309c-0.603-0.872-0.903-1.94-0.903-3.204
		c0-1.444,0.24-2.632,0.723-3.565c0.48-0.933,1.293-1.79,2.438-2.573c4.151-2.828,9.026-4.979,14.623-6.454
		c5.596-1.474,10.98-2.211,16.157-2.211c7.341,0,13.689,1.279,19.046,3.836c5.355,2.559,9.478,6.304,12.366,11.238
		c2.889,4.935,4.333,10.893,4.333,17.873c0,9.088-1.806,17.016-5.416,23.785s-8.877,12.021-15.797,15.751
		c-6.921,3.732-15.164,5.597-24.732,5.597C31.153,101.819,27.211,101.517,22.818,100.917z"/>
	<path fill="#43C3E9" d="M128.745,82.322c0.451,0.722,0.677,1.715,0.677,2.979c0,2.407-0.572,4.273-1.715,5.597
		c-2.227,2.708-5.37,5.206-9.433,7.492c-4.062,2.287-8.41,3.43-13.043,3.43c-6.319,0-11.225-1.715-14.714-5.145
		c-3.49-3.431-5.235-8.124-5.235-14.082c0-4.152,0.872-8.018,2.618-11.6c1.744-3.579,4.166-6.422,7.267-8.529
		c3.099-2.105,6.604-3.16,10.516-3.16c3.489,0,6.287,1.039,8.395,3.115c2.105,2.076,3.159,4.89,3.159,8.439
		c0,4.152-1.489,7.718-4.468,10.696s-8.02,5.342-15.12,7.086c1.504,2.769,4.362,4.152,8.575,4.152c2.708,0,5.792-0.948,9.253-2.844
		c3.459-1.896,6.454-4.378,8.981-7.446c0.722-0.842,1.534-1.264,2.437-1.264C127.676,81.239,128.294,81.599,128.745,82.322z
		 M98.507,72.032c-1.535,2.588-2.302,5.717-2.302,9.388v0.18c3.55-0.842,6.348-2.105,8.395-3.79
		c2.045-1.685,3.068-3.641,3.068-5.868c0-1.142-0.315-2.061-0.947-2.753c-0.632-0.691-1.489-1.038-2.572-1.038
		C101.921,68.15,100.041,69.445,98.507,72.032z"/>
	<path fill="#43C3E9" d="M164.219,82.322c0.451,0.722,0.677,1.715,0.677,2.979c0,2.407-0.572,4.273-1.715,5.597
		c-2.588,3.19-5.416,5.808-8.484,7.853c-3.069,2.047-6.59,3.069-10.562,3.069c-12.276,0-18.414-8.635-18.414-25.906
		c0-2.646,0.09-5.326,0.271-8.033h-3.521c-1.805,0-3.023-0.33-3.655-0.993c-0.632-0.661-0.948-1.715-0.948-3.159
		c0-3.369,1.354-5.055,4.063-5.055h5.145c1.023-6.619,2.587-12.667,4.694-18.143c2.105-5.475,4.648-9.839,7.627-13.088
		c2.979-3.25,6.184-4.875,9.613-4.875c2.528,0,4.514,1.114,5.958,3.34c1.444,2.227,2.166,5.025,2.166,8.395
		c0,9.329-3.912,17.452-11.734,24.372h10.11c0.962,0,1.654,0.212,2.075,0.632c0.421,0.422,0.632,1.205,0.632,2.347
		c0,4.152-3.4,6.229-10.199,6.229h-11.013c-0.121,3.01-0.181,5.356-0.181,7.041c0,6.259,0.736,10.65,2.212,13.179
		c1.474,2.527,3.805,3.791,6.995,3.791c2.587,0,4.875-0.781,6.86-2.348c1.986-1.563,4.333-3.91,7.041-7.04
		c0.722-0.842,1.534-1.264,2.437-1.264C163.149,81.239,163.768,81.599,164.219,82.322z M143.548,34.616
		c-1.114,2.257-2.166,5.386-3.159,9.388c-0.993,4.003-1.82,8.44-2.482,13.314c3.55-3.069,6.213-6.513,7.989-10.335
		c1.773-3.821,2.662-7.296,2.662-10.426c0-3.55-0.663-5.326-1.985-5.326C145.669,31.231,144.661,32.36,143.548,34.616z"/>
	<path fill="#43C3E9" d="M167.196,101.638c-1.656-1.444-2.482-3.068-2.482-4.874c0-1.564,0.571-2.918,1.715-4.062
		c1.143-1.143,2.828-1.716,5.055-1.716c0.781,0,1.7,0.076,2.753,0.226c1.053,0.151,1.851,0.257,2.393,0.316
		c-0.061-1.564-0.406-3.038-1.038-4.423c-0.632-1.384-1.431-2.723-2.393-4.017c-0.963-1.294-1.865-2.422-2.708-3.386
		c-1.865,3.552-3.716,6.499-5.551,8.847c-1.836,2.347-3.836,4.573-6.003,6.68c-1.083,1.083-2.227,1.624-3.43,1.624
		c-0.964,0-1.746-0.345-2.347-1.038c-0.602-0.69-0.903-1.548-0.903-2.572c0-1.203,0.422-2.315,1.264-3.34l1.174-1.444
		c3.309-4.092,5.807-7.461,7.492-10.109c1.022-1.744,2.226-4.076,3.61-6.996c1.384-2.918,2.737-5.941,4.062-9.071
		c1.143-2.647,3.521-3.972,7.132-3.972c1.684,0,2.857,0.151,3.52,0.451c0.662,0.302,0.993,0.783,0.993,1.444
		c0,0.361-0.121,0.934-0.361,1.716c-0.241,0.782-0.572,1.564-0.992,2.346c-1.083,2.167-1.625,4.004-1.625,5.507
		c0,0.902,0.315,1.896,0.947,2.979s1.609,2.437,2.935,4.062c1.925,2.528,3.385,4.681,4.377,6.454c0.993,1.776,1.49,3.717,1.49,5.822
		c0,0.603-0.062,1.444-0.181,2.527c2.947-1.142,6.408-4.182,10.38-9.116c0.723-0.842,1.535-1.264,2.438-1.264
		c0.781,0,1.399,0.36,1.851,1.083c0.451,0.722,0.677,1.715,0.677,2.979c0,2.288-0.572,4.152-1.715,5.597
		c-3.01,3.731-5.883,6.273-8.62,7.627c-2.739,1.354-6.124,2.092-10.155,2.212c-2.407,2.045-5.267,3.069-8.575,3.069
		C171.242,103.805,168.851,103.083,167.196,101.638z"/>
	<path fill="#43C3E9" d="M250.149,82.322c0.451,0.722,0.677,1.715,0.677,2.979c0,2.407-0.572,4.273-1.715,5.597
		c-2.708,3.311-5.446,5.957-8.214,7.943c-2.769,1.985-6.048,2.979-9.839,2.979c-4.635,0-8.365-1.323-11.193-3.972
		c-2.829-2.647-4.242-6.168-4.242-10.561c0-2.348,1.203-4.031,3.61-5.056c2.647-1.142,4.543-2.36,5.688-3.655
		c1.142-1.294,1.715-2.873,1.715-4.739c0-1.083-0.226-1.896-0.678-2.438c-0.451-0.541-1.008-0.813-1.67-0.813
		c-1.624,0-3.415,1.174-5.37,3.521c-1.956,2.347-3.777,5.37-5.461,9.071c-1.686,3.701-3.01,7.508-3.972,11.419
		c-0.663,2.829-1.431,4.738-2.302,5.731c-0.873,0.993-2.243,1.489-4.107,1.489c-1.866,0-3.235-0.677-4.107-2.031
		c-0.873-1.354-1.459-3.443-1.76-6.273c-0.302-2.827-0.451-6.979-0.451-12.456c0-9.267,0.947-18.925,2.843-28.976
		c1.896-10.049,4.694-18.489,8.396-25.319c3.7-6.829,8.138-10.245,13.313-10.245c2.768,0,5.01,1.189,6.725,3.565
		c1.716,2.378,2.573,5.461,2.573,9.252c0,6.079-1.776,12.382-5.326,18.911c-3.551,6.53-9.328,14.157-17.331,22.883
		c-0.181,3.129-0.271,6.35-0.271,9.658c2.889-7.521,6.197-12.983,9.93-16.384c3.73-3.399,7.221-5.1,10.471-5.1
		c3.008,0,5.43,1.024,7.266,3.07c1.835,2.046,2.754,4.573,2.754,7.582c0,3.311-0.844,6.35-2.528,9.116
		c-1.685,2.769-4.573,5.235-8.665,7.402c0.24,1.625,0.978,2.934,2.212,3.927c1.232,0.992,2.722,1.489,4.468,1.489
		c1.864,0,3.67-0.723,5.416-2.167c1.744-1.444,4.031-3.851,6.86-7.221c0.722-0.842,1.534-1.264,2.437-1.264
		C249.08,81.239,249.698,81.599,250.149,82.322z M215.804,30.103c-1.324,3.1-2.604,7.282-3.836,12.547
		c-1.234,5.267-2.243,10.999-3.024,17.196c3.73-4.392,6.815-9.176,9.252-14.353c2.438-5.175,3.656-9.869,3.656-14.081
		c0-1.925-0.212-3.399-0.632-4.423c-0.422-1.022-1.024-1.534-1.806-1.534C218.331,25.455,217.127,27.004,215.804,30.103z"/>
	<path fill="#43C3E9" d="M245.681,97.757c-2.227-2.708-3.34-6.258-3.34-10.651c0-4.813,1.113-9.373,3.34-13.676
		c2.226-4.301,5.19-7.763,8.892-10.381c3.7-2.617,7.627-3.926,11.779-3.926c1.323,0,2.212,0.256,2.663,0.767
		c0.451,0.512,0.826,1.43,1.128,2.752c1.264-0.239,2.587-0.36,3.972-0.36c2.948,0,4.423,1.054,4.423,3.159
		c0,1.264-0.451,4.273-1.354,9.027c-1.385,6.92-2.076,11.733-2.076,14.441c0,0.903,0.226,1.625,0.677,2.167
		c0.451,0.541,1.038,0.813,1.761,0.813c1.142,0,2.527-0.736,4.151-2.212c1.625-1.474,3.821-3.866,6.59-7.176
		c0.722-0.842,1.534-1.264,2.438-1.264c0.781,0,1.398,0.36,1.85,1.083c0.452,0.722,0.678,1.715,0.678,2.979
		c0,2.407-0.573,4.273-1.715,5.597c-2.469,3.069-5.086,5.657-7.854,7.763c-2.769,2.107-5.447,3.159-8.034,3.159
		c-1.985,0-3.807-0.677-5.461-2.031c-1.655-1.354-2.903-3.204-3.746-5.551c-3.129,5.055-7.071,7.582-11.824,7.582
		C250.885,101.819,247.906,100.465,245.681,97.757z M261.658,90.355c1.202-1.563,2.075-3.64,2.617-6.228l3.34-16.609
		c-2.527,0.061-4.86,1.008-6.995,2.844c-2.137,1.836-3.837,4.258-5.101,7.266c-1.264,3.01-1.896,6.199-1.896,9.568
		c0,1.866,0.375,3.25,1.129,4.152c0.751,0.902,1.789,1.354,3.113,1.354C259.189,92.703,260.453,91.92,261.658,90.355z
		 M264.952,52.398c-0.632-0.632-0.947-1.399-0.947-2.302c0-0.42,0.149-0.993,0.451-1.715l8.395-18.775
		c0.542-1.203,1.248-2.09,2.121-2.663c0.872-0.571,1.851-0.857,2.934-0.857c1.504,0,2.844,0.542,4.018,1.625
		c1.173,1.083,1.76,2.437,1.76,4.062c0,1.686-0.663,3.371-1.986,5.055l-11.644,14.984c-0.783,1.024-1.746,1.534-2.889,1.534
		C266.32,53.346,265.584,53.03,264.952,52.398z"/>
	<path fill="#43C3E9" d="M319.472,101.638c-1.656-1.444-2.482-3.068-2.482-4.874c0-1.564,0.571-2.918,1.715-4.062
		c1.143-1.143,2.828-1.716,5.055-1.716c0.781,0,1.7,0.076,2.753,0.226c1.053,0.151,1.851,0.257,2.393,0.316
		c-0.061-1.564-0.406-3.038-1.038-4.423c-0.632-1.384-1.431-2.723-2.393-4.017c-0.963-1.294-1.865-2.422-2.708-3.386
		c-1.865,3.552-3.716,6.499-5.551,8.847c-1.836,2.347-3.836,4.573-6.003,6.68c-1.083,1.083-2.227,1.624-3.43,1.624
		c-0.964,0-1.746-0.345-2.347-1.038c-0.602-0.69-0.903-1.548-0.903-2.572c0-1.203,0.422-2.315,1.264-3.34l1.174-1.444
		c3.309-4.092,5.807-7.461,7.492-10.109c1.022-1.744,2.226-4.076,3.61-6.996c1.384-2.918,2.737-5.941,4.062-9.071
		c1.143-2.647,3.521-3.972,7.132-3.972c1.684,0,2.857,0.151,3.52,0.451c0.662,0.302,0.993,0.783,0.993,1.444
		c0,0.361-0.121,0.934-0.361,1.716c-0.241,0.782-0.572,1.564-0.992,2.346c-1.083,2.167-1.625,4.004-1.625,5.507
		c0,0.902,0.315,1.896,0.947,2.979s1.609,2.437,2.935,4.062c1.925,2.528,3.385,4.681,4.377,6.454c0.993,1.776,1.49,3.717,1.49,5.822
		c0,0.603-0.062,1.444-0.181,2.527c2.947-1.142,6.408-4.182,10.38-9.116c0.723-0.842,1.535-1.264,2.438-1.264
		c0.781,0,1.399,0.36,1.851,1.083c0.451,0.722,0.677,1.715,0.677,2.979c0,2.288-0.572,4.152-1.715,5.597
		c-3.01,3.731-5.883,6.273-8.62,7.627c-2.739,1.354-6.124,2.092-10.155,2.212c-2.407,2.045-5.267,3.069-8.575,3.069
		C323.518,103.805,321.126,103.083,319.472,101.638z M324.752,51.812c-1.024-1.083-1.806-2.798-2.347-5.145l-3.972-16.248
		c-0.181-0.722-0.271-1.384-0.271-1.986c0-1.503,0.497-2.663,1.49-3.475c0.992-0.813,2.18-1.219,3.565-1.219
		c1.383,0,2.496,0.347,3.34,1.038c0.842,0.692,1.383,1.972,1.624,3.836l2.076,15.977l7.854-15.977
		c0.902-1.865,1.864-3.128,2.889-3.792c1.022-0.661,2.166-0.993,3.43-0.993s2.271,0.286,3.024,0.857
		c0.751,0.573,1.128,1.399,1.128,2.482c0,1.024-0.331,2.107-0.993,3.25L337.479,47.84c-1.083,1.866-2.302,3.265-3.656,4.197
		c-1.354,0.934-2.964,1.399-4.829,1.399C327.189,53.437,325.774,52.895,324.752,51.812z"/>
	<path fill="#43C3E9" d="M402.424,82.322c0.451,0.722,0.677,1.715,0.677,2.979c0,2.407-0.572,4.273-1.715,5.597
		c-2.708,3.311-5.446,5.957-8.214,7.943c-2.769,1.985-6.048,2.979-9.839,2.979c-4.635,0-8.365-1.323-11.193-3.972
		c-2.829-2.647-4.242-6.168-4.242-10.561c0-2.348,1.203-4.031,3.61-5.056c2.647-1.142,4.543-2.36,5.688-3.655
		c1.142-1.294,1.715-2.873,1.715-4.739c0-1.083-0.226-1.896-0.678-2.438c-0.451-0.541-1.008-0.813-1.67-0.813
		c-1.624,0-3.415,1.174-5.37,3.521c-1.956,2.347-3.777,5.37-5.461,9.071c-1.686,3.701-3.01,7.508-3.972,11.419
		c-0.663,2.829-1.431,4.738-2.302,5.731c-0.873,0.993-2.243,1.489-4.107,1.489c-1.866,0-3.235-0.677-4.107-2.031
		c-0.873-1.354-1.459-3.443-1.76-6.273c-0.302-2.827-0.451-6.979-0.451-12.456c0-9.267,0.947-18.925,2.843-28.976
		c1.896-10.049,4.694-18.489,8.396-25.319c3.7-6.829,8.138-10.245,13.313-10.245c2.768,0,5.01,1.189,6.725,3.565
		c1.716,2.378,2.573,5.461,2.573,9.252c0,6.079-1.776,12.382-5.326,18.911c-3.551,6.53-9.328,14.157-17.331,22.883
		c-0.181,3.129-0.271,6.35-0.271,9.658c2.889-7.521,6.197-12.983,9.93-16.384c3.73-3.399,7.221-5.1,10.471-5.1
		c3.008,0,5.43,1.024,7.266,3.07c1.835,2.046,2.754,4.573,2.754,7.582c0,3.311-0.844,6.35-2.528,9.116
		c-1.685,2.769-4.573,5.235-8.665,7.402c0.24,1.625,0.978,2.934,2.212,3.927c1.232,0.992,2.722,1.489,4.468,1.489
		c1.864,0,3.67-0.723,5.416-2.167c1.744-1.444,4.031-3.851,6.86-7.221c0.722-0.842,1.534-1.264,2.437-1.264
		C401.354,81.239,401.973,81.599,402.424,82.322z M368.078,30.103c-1.324,3.1-2.604,7.282-3.836,12.547
		c-1.234,5.267-2.243,10.999-3.024,17.196c3.73-4.392,6.815-9.176,9.252-14.353c2.438-5.175,3.656-9.869,3.656-14.081
		c0-1.925-0.212-3.399-0.632-4.423c-0.422-1.022-1.024-1.534-1.806-1.534C370.605,25.455,369.401,27.004,368.078,30.103z"/>
	<path fill="#43C3E9" d="M443.63,74.83c0.42,0.782,0.632,1.776,0.632,2.979c0,2.888-0.873,4.603-2.618,5.145
		c-3.61,1.264-7.582,1.985-11.915,2.166c-1.144,5.055-3.4,9.103-6.77,12.141c-3.371,3.04-7.191,4.559-11.464,4.559
		c-3.61,0-6.695-0.871-9.252-2.617c-2.559-1.745-4.5-4.063-5.822-6.951c-1.324-2.888-1.986-6.017-1.986-9.388
		c0-4.572,0.872-8.649,2.618-12.23c1.744-3.579,4.152-6.378,7.221-8.395c3.069-2.016,6.469-3.024,10.2-3.024
		c4.572,0,8.26,1.58,11.058,4.739s4.438,7.056,4.92,11.689c2.827-0.181,6.197-0.781,10.109-1.806c0.48-0.119,0.902-0.18,1.264-0.18
		C442.605,73.657,443.208,74.048,443.63,74.83z M421.876,52.398c-0.844-0.691-1.386-1.97-1.625-3.836l-2.076-15.977l-7.854,15.977
		c-0.902,1.866-1.865,3.129-2.889,3.791c-1.023,0.663-2.166,0.993-3.43,0.993s-2.272-0.285-3.023-0.857
		c-0.754-0.571-1.129-1.399-1.129-2.482c0-1.022,0.33-2.105,0.993-3.25l10.109-17.421c1.083-1.865,2.302-3.264,3.656-4.197
		c1.354-0.933,2.963-1.399,4.829-1.399c1.806,0,3.219,0.542,4.242,1.625c1.022,1.083,1.806,2.798,2.347,5.145l3.972,16.248
		c0.181,0.722,0.271,1.385,0.271,1.986c0,1.505-0.497,2.663-1.489,3.476c-0.993,0.812-2.183,1.218-3.565,1.218
		C423.83,53.437,422.718,53.091,421.876,52.398z M417.227,89.904c1.413-1.564,2.361-3.82,2.844-6.77
		c-1.866-1.264-3.295-2.918-4.288-4.965c-0.992-2.045-1.489-4.212-1.489-6.499c0-0.962,0.091-1.926,0.271-2.889h-0.452
		c-2.407,0-4.408,1.16-6.002,3.475c-1.596,2.318-2.393,5.583-2.393,9.795c0,3.31,0.646,5.837,1.941,7.582
		c1.293,1.746,2.812,2.617,4.558,2.617C414.143,92.25,415.813,91.469,417.227,89.904z"/>
	<path fill="#43C3E9" d="M472.559,82.322c0.451,0.722,0.678,1.715,0.678,2.979c0,2.407-0.573,4.273-1.716,5.597
		c-2.588,3.19-5.401,5.808-8.439,7.853c-3.039,2.047-6.485,3.069-10.336,3.069c-5.296,0-9.222-2.406-11.779-7.221
		c-2.559-4.814-3.836-11.042-3.836-18.686c0-7.341,0.947-15.706,2.843-25.094s4.694-17.451,8.396-24.191
		c3.7-6.739,8.108-10.11,13.224-10.11c2.889,0,5.159,1.34,6.814,4.017c1.655,2.679,2.482,6.515,2.482,11.509
		c0,7.162-1.985,15.466-5.957,24.913c-3.972,9.448-9.358,18.806-16.158,28.073c0.421,2.468,1.113,4.229,2.076,5.28
		c0.962,1.054,2.226,1.58,3.792,1.58c2.467,0,4.633-0.707,6.499-2.122c1.864-1.413,4.242-3.836,7.131-7.266
		c0.722-0.842,1.534-1.264,2.437-1.264C471.49,81.239,472.107,81.599,472.559,82.322z M454.912,32.946
		c-1.746,4.996-3.28,11.193-4.604,18.595c-1.324,7.402-2.047,14.503-2.167,21.303c4.272-7.041,7.673-14.096,10.2-21.168
		c2.527-7.07,3.791-13.524,3.791-19.362c0-4.572-0.843-6.86-2.527-6.86C458.221,25.455,456.656,27.952,454.912,32.946z"/>
	<path fill="#43C3E9" d="M519.947,82.322c0.451,0.722,0.677,1.715,0.677,2.979c0,2.407-0.572,4.273-1.715,5.597
		c-2.708,3.311-5.446,5.957-8.214,7.943c-2.769,1.985-6.048,2.979-9.839,2.979c-4.635,0-8.365-1.323-11.193-3.972
		c-2.829-2.647-4.242-6.168-4.242-10.561c0-2.348,1.203-4.031,3.61-5.056c2.647-1.142,4.543-2.36,5.688-3.655
		c1.142-1.294,1.715-2.873,1.715-4.739c0-1.083-0.226-1.896-0.678-2.438c-0.451-0.541-1.008-0.813-1.67-0.813
		c-1.624,0-3.415,1.174-5.37,3.521c-1.956,2.347-3.777,5.37-5.461,9.071c-1.686,3.701-3.01,7.508-3.972,11.419
		c-0.663,2.829-1.431,4.738-2.302,5.731c-0.873,0.993-2.243,1.489-4.107,1.489c-1.866,0-3.235-0.677-4.107-2.031
		c-0.873-1.354-1.459-3.443-1.76-6.273c-0.302-2.827-0.451-6.979-0.451-12.456c0-9.267,0.947-18.925,2.843-28.976
		c1.896-10.049,4.694-18.489,8.396-25.319c3.7-6.829,8.138-10.245,13.313-10.245c2.768,0,5.01,1.189,6.725,3.565
		c1.716,2.378,2.573,5.461,2.573,9.252c0,6.079-1.776,12.382-5.326,18.911c-3.551,6.53-9.328,14.157-17.331,22.883
		c-0.181,3.129-0.271,6.35-0.271,9.658c2.889-7.521,6.197-12.983,9.93-16.384c3.73-3.399,7.221-5.1,10.471-5.1
		c3.008,0,5.43,1.024,7.266,3.07c1.835,2.046,2.754,4.573,2.754,7.582c0,3.311-0.844,6.35-2.528,9.116
		c-1.685,2.769-4.573,5.235-8.665,7.402c0.24,1.625,0.978,2.934,2.212,3.927c1.232,0.992,2.722,1.489,4.468,1.489
		c1.864,0,3.67-0.723,5.416-2.167c1.744-1.444,4.031-3.851,6.86-7.221c0.722-0.842,1.534-1.264,2.437-1.264
		C518.878,81.239,519.496,81.599,519.947,82.322z M485.602,30.103c-1.324,3.1-2.604,7.282-3.836,12.547
		c-1.234,5.267-2.243,10.999-3.024,17.196c3.73-4.392,6.815-9.176,9.252-14.353c2.438-5.175,3.656-9.869,3.656-14.081
		c0-1.925-0.212-3.399-0.632-4.423c-0.422-1.022-1.024-1.534-1.806-1.534C488.129,25.455,486.925,27.004,485.602,30.103z"/>
	<path fill="#43C3E9" d="M515.479,97.757c-2.227-2.708-3.34-6.258-3.34-10.651c0-4.813,1.113-9.373,3.34-13.676
		c2.226-4.301,5.19-7.763,8.892-10.381c3.7-2.617,7.627-3.926,11.779-3.926c1.323,0,2.212,0.256,2.663,0.767
		c0.451,0.512,0.826,1.43,1.128,2.752c1.264-0.239,2.587-0.36,3.972-0.36c2.948,0,4.423,1.054,4.423,3.159
		c0,1.264-0.451,4.273-1.354,9.027c-1.385,6.92-2.076,11.733-2.076,14.441c0,0.903,0.226,1.625,0.677,2.167
		c0.451,0.541,1.038,0.813,1.761,0.813c1.142,0,2.527-0.736,4.151-2.212c1.625-1.474,3.821-3.866,6.59-7.176
		c0.722-0.842,1.534-1.264,2.438-1.264c0.781,0,1.398,0.36,1.85,1.083c0.452,0.722,0.678,1.715,0.678,2.979
		c0,2.407-0.573,4.273-1.715,5.597c-2.469,3.069-5.086,5.657-7.854,7.763c-2.769,2.107-5.447,3.159-8.034,3.159
		c-1.985,0-3.807-0.677-5.461-2.031c-1.655-1.354-2.903-3.204-3.746-5.551c-3.129,5.055-7.071,7.582-11.824,7.582
		C520.683,101.819,517.704,100.465,515.479,97.757z M531.456,90.355c1.202-1.563,2.075-3.64,2.617-6.228l3.34-16.609
		c-2.527,0.061-4.86,1.008-6.995,2.844c-2.137,1.836-3.837,4.258-5.101,7.266c-1.264,3.01-1.896,6.199-1.896,9.568
		c0,1.866,0.375,3.25,1.129,4.152c0.751,0.902,1.789,1.354,3.113,1.354C528.987,92.703,530.251,91.92,531.456,90.355z"/>
</g>
</svg>
